<?xml version="1.0" encoding="UTF-8"?>
<svg width="17px" height="17px" viewBox="0 0 17 17" version="1.1" xmlns="http://www.w3.org/2000/svg" xmlns:xlink="http://www.w3.org/1999/xlink">
    <title>self-timer-icon</title>
    <g id="Page-1" stroke="none" stroke-width="1" fill="none" fill-rule="evenodd">
        <g id="menu-bar-icon" transform="translate(-3.000000, -3.000000)" fill="#000000">
            <g id="self-timer-icon" transform="translate(3.402000, 3.244500)">
                <path d="M11.5034531,2.78063944 C11.1525954,2.55920233 11.0508053,2.10039963 11.2760159,1.75590721 C11.5012265,1.41110245 11.9685067,1.31115905 12.3196825,1.53228383 C12.8552697,1.86911044 13.347708,2.26788883 13.7864143,2.72004875 C14.2254456,3.17266203 14.6080472,3.67497545 14.9261454,4.21638894 L14.9509568,4.26230044 C16.0340671,6.13061749 16.2519616,8.25222861 15.7267882,10.1767638 C15.1968435,12.1181645 13.9126977,13.8609276 11.9996799,14.9453136 C10.0857078,16.0303242 7.90580908,16.251449 5.92949056,15.7314309 C3.95221776,15.2114129 2.1769347,13.9505644 1.07251205,12.072253 L1.0483369,12.0279031 C0.291272993,10.7223924 -0.0427257917,9.29288932 0.00435213222,7.89305699 C0.0533386206,6.42951074 0.51871026,4.99782144 1.35179866,3.77445169 C1.58368924,3.43433178 2.05224182,3.34344575 2.39832818,3.57112932 C2.74473263,3.79881289 2.83729801,4.25886488 2.60540743,4.59867246 C1.92945751,5.59154774 1.55187983,6.75276519 1.51179998,7.93959314 C1.47394678,9.07551241 1.74400866,10.2348559 2.35697595,11.2936314 L2.37924254,11.3289239 C3.27499547,12.8527485 4.71564355,13.8756068 6.319792,14.2975554 C7.92457664,14.7198163 9.69254353,14.5414798 11.2429341,13.6626024 C12.794597,12.7827881 13.8366732,11.3685889 14.2664183,9.79354332 C14.6929825,8.22974134 14.5177126,6.50821617 13.6410454,4.99407356 L13.619415,4.95971802 C13.3544426,4.5087234 13.0420742,4.10176634 12.6924888,3.74165776 C12.3339968,3.3724918 11.9338344,3.05111128 11.5034531,2.78063944 Z M7.6898232,0.173678157 C8.32028567,-0.183931844 9.12697226,0.0284478944 9.49118998,0.647784689 C9.85508961,1.26712148 9.63910373,2.05886066 9.00832317,2.41647066 C8.3778607,2.77408066 7.57117411,2.56170092 7.20695639,1.94236412 C6.84273867,1.32302733 7.05904264,0.531288157 7.6898232,0.173678157 Z M3.38282936,1.06723467 L6.71072963,8.87500095 C7.12170718,9.57398015 8.03177434,9.813532 8.74366889,9.4100105 C9.45556344,9.00617668 9.69922351,8.11262016 9.28824596,7.41364096 L4.20064924,0.603747126 C3.82211728,0.181486235 3.15571018,0.610618235 3.38282936,1.06723467 Z" id="Shape"></path>
            </g>
        </g>
    </g>
</svg>